<svg xmlns="http://www.w3.org/2000/svg" xmlns:xlink="http://www.w3.org/1999/xlink" width="1587" zoomAndPan="magnify" viewBox="0 0 1190.25 1683.749949" height="2245" preserveAspectRatio="xMidYMid meet" version="1.0"><defs><clipPath id="0ade13bf24"><path d="M 0 0.40625 L 1189.5 0.40625 L 1189.5 1683.09375 L 0 1683.09375 Z M 0 0.40625 " clip-rule="nonzero"/></clipPath><clipPath id="d503afc883"><path d="M 0 0.40625 L 1189.199219 0.40625 L 1189.199219 1682.667969 L 0 1682.667969 Z M 0 0.40625 " clip-rule="nonzero"/></clipPath><clipPath id="026b4f96a9"><path d="M 202.214844 260.609375 L 987.160156 260.609375 L 987.160156 1316.429688 L 202.214844 1316.429688 Z M 202.214844 260.609375 " clip-rule="nonzero"/></clipPath><clipPath id="ff0d09a3b2"><rect x="0" width="1190" y="0" height="1684"/></clipPath></defs><g clip-path="url(#0ade13bf24)"><path fill="#ffffff" d="M 0 0.40625 L 1189.5 0.40625 L 1189.5 1683.09375 L 0 1683.09375 Z M 0 0.40625 " fill-opacity="1" fill-rule="nonzero"/><g transform="matrix(1, 0, 0, 1, 0, 0.000000000000081102)"><g clip-path="url(#ff0d09a3b2)"><g clip-path="url(#d503afc883)"><path fill="#ffffff" d="M 0 0.40625 L 1189.199219 0.40625 L 1189.199219 1682.667969 L 0 1682.667969 Z M 0 0.40625 " fill-opacity="1" fill-rule="nonzero"/></g><g clip-path="url(#026b4f96a9)"><path fill="#1f2124" d="M 764.980469 930.171875 L 719.535156 987.59375 C 715.109375 993.191406 708.1875 996.535156 701.019531 996.535156 C 699.136719 996.535156 697.257812 996.308594 695.429688 995.859375 L 624.3125 978.378906 C 619.496094 977.199219 614.546875 976.597656 609.601562 976.597656 C 602.804688 976.597656 596.082031 977.71875 589.625 979.925781 L 520.347656 1003.671875 C 517.894531 1004.515625 515.335938 1004.933594 512.742188 1004.933594 C 506.273438 1004.933594 500.027344 1002.257812 495.601562 997.585938 L 445.226562 944.4375 C 437.082031 935.851562 426.699219 929.8125 415.203125 926.988281 L 344.085938 909.507812 C 335.152344 907.3125 328.273438 900.054688 326.558594 891.015625 L 312.917969 819.070312 C 310.710938 807.4375 305.242188 796.75 297.09375 788.15625 L 246.71875 735.007812 C 240.390625 728.332031 238.527344 718.503906 241.972656 709.972656 L 269.394531 642.070312 C 273.828125 631.097656 275.003906 619.144531 272.796875 607.515625 L 259.15625 535.566406 C 257.441406 526.535156 261.1875 517.257812 268.699219 511.941406 L 328.476562 469.644531 C 338.140625 462.804688 345.589844 453.390625 350.023438 442.417969 L 377.449219 374.515625 C 380.890625 365.984375 389.058594 360.207031 398.246094 359.792969 L 471.410156 356.53125 C 483.238281 356.003906 494.597656 352.105469 504.257812 345.277344 L 564.039062 302.972656 C 568.03125 300.152344 572.738281 298.664062 577.660156 298.664062 C 581.824219 298.664062 585.914062 299.757812 589.492188 301.839844 L 652.804688 338.644531 C 662.199219 344.109375 672.910156 346.992188 683.78125 346.992188 C 684.695312 346.992188 685.617188 346.96875 686.527344 346.929688 L 759.6875 343.667969 C 760.042969 343.65625 760.398438 343.640625 760.75 343.640625 C 769.5 343.640625 777.730469 348.675781 781.71875 356.472656 L 815.082031 421.660156 C 820.472656 432.203125 828.730469 440.914062 838.964844 446.867188 L 902.277344 483.671875 C 910.230469 488.292969 914.789062 497.195312 913.886719 506.351562 L 906.710938 579.230469 C 905.546875 591.007812 907.78125 602.8125 913.171875 613.347656 L 946.535156 678.535156 C 950.726562 686.722656 949.746094 696.675781 944.042969 703.890625 L 898.59375 761.316406 C 891.246094 770.601562 886.757812 781.734375 885.597656 793.515625 L 878.410156 866.390625 C 877.507812 875.546875 871.300781 883.386719 862.601562 886.371094 L 793.328125 910.113281 C 782.125 913.953125 772.324219 920.886719 764.980469 930.171875 Z M 617.886719 1015.996094 L 686.347656 1032.816406 C 691.132812 1034 696.058594 1034.59375 700.988281 1034.59375 C 710.167969 1034.59375 719.410156 1032.492188 727.714844 1028.515625 C 736.125 1024.484375 743.617188 1018.5 749.386719 1011.214844 L 794.828125 953.789062 C 796.664062 951.472656 798.945312 949.535156 801.527344 948.054688 L 919.585938 1169.839844 L 820.238281 1175.929688 C 814.730469 1176.269531 809.652344 1178.972656 806.292969 1183.351562 L 745.761719 1262.363281 L 616.253906 1019.066406 Z M 406.121094 963.949219 C 410.515625 965.027344 414.484375 967.335938 417.601562 970.625 L 467.976562 1023.769531 C 479.550781 1035.988281 495.882812 1042.992188 512.78125 1042.992188 C 519.570312 1042.992188 526.269531 1041.878906 532.6875 1039.675781 L 568.738281 1027.320312 L 443.621094 1262.363281 L 383.085938 1183.351562 C 379.730469 1178.972656 374.648438 1176.269531 369.144531 1175.929688 L 269.792969 1169.839844 L 382.484375 958.144531 Z M 916.296875 870.121094 L 923.476562 797.246094 C 923.917969 792.742188 925.640625 788.484375 928.445312 784.933594 L 973.890625 727.511719 C 988.816406 708.640625 991.382812 682.609375 980.421875 661.195312 L 947.058594 596.007812 C 944.996094 591.972656 944.140625 587.464844 944.589844 582.960938 L 951.765625 510.085938 C 954.125 486.140625 942.207031 462.851562 921.40625 450.761719 L 858.097656 413.957031 C 854.1875 411.683594 851.027344 408.355469 848.964844 404.324219 L 815.605469 339.136719 C 810.4375 329.035156 802.5625 320.5625 792.84375 314.628906 C 783.144531 308.710938 772.035156 305.582031 760.710938 305.582031 C 759.808594 305.582031 758.894531 305.601562 757.992188 305.640625 L 684.832031 308.902344 C 684.480469 308.925781 684.121094 308.933594 683.769531 308.933594 C 679.621094 308.933594 675.53125 307.832031 671.9375 305.742188 L 608.625 268.929688 C 599.257812 263.484375 588.554688 260.609375 577.671875 260.609375 C 564.8125 260.609375 552.496094 264.515625 542.054688 271.90625 L 482.269531 314.203125 C 478.578125 316.816406 474.230469 318.304688 469.710938 318.507812 L 396.550781 321.769531 C 372.515625 322.84375 351.160156 337.957031 342.152344 360.261719 L 314.730469 428.164062 C 313.035156 432.363281 310.183594 435.957031 306.492188 438.574219 L 246.710938 480.875 C 227.070312 494.769531 217.277344 519.019531 221.757812 542.660156 L 235.398438 614.609375 C 236.246094 619.058594 235.792969 623.621094 234.097656 627.820312 L 206.675781 695.722656 C 197.667969 718.03125 202.542969 743.730469 219.09375 761.191406 L 269.46875 814.339844 C 272.582031 817.625 274.675781 821.714844 275.519531 826.160156 L 289.160156 898.109375 C 293.644531 921.746094 311.636719 940.726562 335.003906 946.472656 L 344.351562 948.769531 L 222.285156 1178.078125 C 219.226562 1183.824219 219.300781 1190.640625 222.472656 1196.320312 C 225.652344 1201.992188 231.425781 1205.621094 237.921875 1206.023438 L 358.148438 1213.386719 L 431.40625 1309 C 434.980469 1313.671875 440.628906 1316.460938 446.511719 1316.460938 C 447.046875 1316.460938 447.578125 1316.441406 448.089844 1316.394531 C 454.5625 1315.863281 460.257812 1312.117188 463.3125 1306.375 L 594.691406 1059.574219 L 726.070312 1306.375 C 729.125 1312.117188 734.820312 1315.863281 741.304688 1316.394531 C 741.804688 1316.441406 742.335938 1316.460938 742.871094 1316.460938 C 748.75 1316.460938 754.398438 1313.671875 757.976562 1309.007812 L 831.234375 1213.386719 L 951.460938 1206.023438 C 957.957031 1205.621094 963.726562 1201.992188 966.902344 1196.320312 C 970.078125 1190.640625 970.152344 1183.824219 967.097656 1178.078125 L 837.765625 935.125 L 874.945312 922.378906 C 897.699219 914.578125 913.933594 894.066406 916.296875 870.121094 " fill-opacity="1" fill-rule="nonzero"/></g><path fill="#1f2124" d="M 594.691406 871.339844 C 479.371094 871.339844 385.546875 777.523438 385.546875 662.207031 C 385.546875 546.890625 479.371094 453.078125 594.691406 453.078125 C 710.011719 453.078125 803.835938 546.890625 803.835938 662.207031 C 803.835938 777.523438 710.011719 871.339844 594.691406 871.339844 Z M 594.691406 415.015625 C 458.378906 415.015625 347.484375 525.90625 347.484375 662.207031 C 347.484375 798.507812 458.378906 909.402344 594.691406 909.402344 C 731.003906 909.402344 841.898438 798.507812 841.898438 662.207031 C 841.898438 525.90625 731.003906 415.015625 594.691406 415.015625 " fill-opacity="1" fill-rule="nonzero"/><path fill="#1f2124" d="M 709.910156 566.667969 C 709.03125 565.785156 707.84375 565.296875 706.605469 565.296875 C 705.367188 565.296875 704.179688 565.785156 703.304688 566.667969 L 562.738281 707.222656 L 486.078125 630.566406 C 485.167969 629.660156 483.972656 629.199219 482.777344 629.199219 C 481.582031 629.199219 480.386719 629.660156 479.472656 630.566406 L 459.160156 650.878906 C 458.285156 651.753906 457.792969 652.941406 457.792969 654.179688 C 457.792969 655.417969 458.285156 656.605469 459.160156 657.484375 L 559.4375 757.75 C 560.308594 758.625 561.496094 759.117188 562.738281 759.117188 C 563.976562 759.117188 565.164062 758.625 566.039062 757.75 L 730.21875 593.578125 C 732.042969 591.753906 732.042969 588.800781 730.21875 586.96875 L 709.910156 566.667969 " fill-opacity="1" fill-rule="nonzero"/></g></g></g></svg>